HIERARCHY
ROOT Hips
{
	OFFSET 0.00000 0.00000 0.00000
	CHANNELS 6 Xposition Yposition Zposition Zrotation Yrotation Xrotation 
	JOINT LHipJoint
	{
		OFFSET 0 0 0
		CHANNELS 3 Zrotation Yrotation Xrotation
		JOINT LeftUpLeg
		{
			OFFSET 1.65412 -1.54119 0.76744
			CHANNELS 3 Zrotation Yrotation Xrotation
			JOINT LeftLeg
			{
				OFFSET 2.19550 -6.03209 0.00000
				CHANNELS 3 Zrotation Yrotation Xrotation
				JOINT LeftFoot
				{
					OFFSET 2.38814 -6.56138 0.00000
					CHANNELS 3 Zrotation Yrotation Xrotation
					JOINT LeftToeBase
					{
						OFFSET 0.17337 -0.47632 1.75875
						CHANNELS 3 Zrotation Yrotation Xrotation
						End Site
						{
							OFFSET 0.00000 -0.00000 0.92050
						}
					}
				}
			}
		}
	}
	JOINT RHipJoint
	{
		OFFSET 0 0 0
		CHANNELS 3 Zrotation Yrotation Xrotation
		JOINT RightUpLeg
		{
			OFFSET -1.40291 -1.54119 0.76744
			CHANNELS 3 Zrotation Yrotation Xrotation
			JOINT RightLeg
			{
				OFFSET -2.22156 -6.10370 0.00000
				CHANNELS 3 Zrotation Yrotation Xrotation
				JOINT RightFoot
				{
					OFFSET -2.46840 -6.78188 0.00000
					CHANNELS 3 Zrotation Yrotation Xrotation
					JOINT RightToeBase
					{
						OFFSET -0.15659 -0.43024 1.84117
						CHANNELS 3 Zrotation Yrotation Xrotation
						End Site
						{
							OFFSET -0.00000 -0.00000 0.95587
						}
					}
				}
			}
		}
	}
	JOINT LowerBack
	{
		OFFSET 0 0 0
		CHANNELS 3 Zrotation Yrotation Xrotation
		JOINT Spine
		{
			OFFSET -0.01936 1.82120 -0.32061
			CHANNELS 3 Zrotation Yrotation Xrotation
			JOINT Spine1
			{
				OFFSET -0.00532 1.85767 -0.00071
				CHANNELS 3 Zrotation Yrotation Xrotation
				JOINT Neck
				{
					OFFSET 0 0 0
					CHANNELS 3 Zrotation Yrotation Xrotation
					JOINT Neck1
					{
						OFFSET -0.10687 1.58194 0.10810
						CHANNELS 3 Zrotation Yrotation Xrotation
						JOINT Head
						{
							OFFSET 0.15346 1.57382 -0.25612
							CHANNELS 3 Zrotation Yrotation Xrotation
							End Site
							{
								OFFSET 0.05334 1.61251 -0.10513
							}
						}
					}
				}
				JOINT LeftShoulder
				{
					OFFSET 0 0 0
					CHANNELS 3 Zrotation Yrotation Xrotation
					JOINT LeftArm
					{
						OFFSET 2.85758 0.89498 -0.01485
						CHANNELS 3 Zrotation Yrotation Xrotation
						JOINT LeftForeArm
						{
							OFFSET 4.79185 -0.00000 -0.00000
							CHANNELS 3 Zrotation Yrotation Xrotation
							JOINT LeftHand
							{
								OFFSET 2.65553 -0.00000 0.00000
								CHANNELS 3 Zrotation Yrotation Xrotation
								JOINT LeftFingerBase
								{
									OFFSET 0 0 0
									CHANNELS 3 Zrotation Yrotation Xrotation
									JOINT LeftHandIndex1
									{
										OFFSET 0.74390 -0.00000 0.00000
										CHANNELS 3 Zrotation Yrotation Xrotation
										End Site
										{
											OFFSET 0.59975 -0.00000 0.00000
										}
									}
								}
								JOINT LThumb
								{
									OFFSET 0 0 0
									CHANNELS 3 Zrotation Yrotation Xrotation
									End Site
									{
										OFFSET 0.60891 -0.00000 0.60891
									}
								}
							}
						}
					}
				}
				JOINT RightShoulder
				{
					OFFSET 0 0 0
					CHANNELS 3 Zrotation Yrotation Xrotation
					JOINT RightArm
					{
						OFFSET -2.93906 0.88031 0.02490
						CHANNELS 3 Zrotation Yrotation Xrotation
						JOINT RightForeArm
						{
							OFFSET -4.77254 -0.00000 -0.00000
							CHANNELS 3 Zrotation Yrotation Xrotation
							JOINT RightHand
							{
								OFFSET -2.75995 -0.00000 -0.00000
								CHANNELS 3 Zrotation Yrotation Xrotation
								JOINT RightFingerBase
								{
									OFFSET 0 0 0
									CHANNELS 3 Zrotation Yrotation Xrotation
									JOINT RightHandIndex1
									{
										OFFSET -0.70162 -0.00000 0.00000
										CHANNELS 3 Zrotation Yrotation Xrotation
										End Site
										{
											OFFSET -0.56566 -0.00000 0.00000
										}
									}
								}
								JOINT RThumb
								{
									OFFSET 0 0 0
									CHANNELS 3 Zrotation Yrotation Xrotation
									End Site
									{
										OFFSET -0.57430 -0.00000 0.57430
									}
								}
							}
						}
					}
				}
			}
		}
	}
}
MOTION
Frames: 11
Frame Time: .0083333
0.3519 15.8948 0.1542 0 0 0 0 0 0 -21 0 0 0 0 0 0 0 0 0 0 0 0 0 0 21 0 0 0 0 0 0 0 0 0 0 0 0 0 0 0 0 0 0 0 0 0 0 -16 0 0 21 0 0 11 0 0 0 -8 0 0 0 0 0 0 0 0 0 0 0 0 0 0 0 0 0 0 0 0 8 0 0 0 0 0 0 0 0 0 0 0 0 0 0 0 0 0
0.3519 15.8948 0.1542 -1.2237 -3.5410 -1.9082 0.0000 0.0000 0.0000 -17.5392 -9.0177 2.9328 1.2975 7.2167 20.3591 0.6366 3.7246 -16.8830 0.4038 -4.0798 -11.3013 0.0000 0.0000 0.0000 18.8963 12.2324 0.8926 -1.7391 -8.3001 23.6293 -0.5914 -5.3858 -17.4851 -0.4467 4.2882 -11.8888 -3.1980 0.5053 10.3000 -2.9911 0.0137 -2.1373 -1.3721 0.0779 -8.0694 -9.5355 -7.3443 -16.8533 14.4625 -13.8700 35.6688 5.4370 -5.2100 18.0391 0.0000 -0.0000 0.0000 -88.8380 -34.8685 74.3932 100.2581 -59.5986 -68.8718 -0.0000 0.0000 -4.0048 35.8131 1.8509 1.3351 -7.1250 0.0000 -0.0000 7.4355 32.2031 -2.3463 0.0000 -0.0000 0.0000 13.0840 62.3403 23.9864 -106.3518 58.9652 -74.1118 0.0000 -0.0000 -32.2809 -3.4465 16.5052 -0.9803 7.1250 -0.0000 -0.0000 16.1308 -13.8889 12.2941
0.3509 15.8952 0.1549 -1.1843 -3.5259 -1.9077 0.0000 0.0000 0.0000 -17.5782 -9.0176 2.9573 1.2937 7.2065 20.3285 0.6353 3.7050 -16.8567 0.3786 -3.9518 -10.9411 0.0000 0.0000 0.0000 18.8607 12.2799 0.9056 -1.7415 -8.3056 23.6461 -0.5967 -5.3622 -17.5279 -0.4212 4.1657 -11.5433 -3.2722 0.4913 10.2782 -2.9846 -0.0125 -2.1222 -1.3184 0.0687 -8.0407 -9.5232 -7.3317 -16.8828 14.4380 -13.8420 35.6687 5.4284 -5.1983 18.0361 -0.0000 -0.0000 0.0000 -88.8219 -34.8990 74.3680 100.2697 -59.5977 -68.8818 -0.0000 0.0000 -4.0380 35.7435 1.8688 1.3445 -7.1250 0.0000 -0.0000 7.3810 32.2239 -2.3251 -0.0000 -0.0000 0.0000 13.1001 62.3627 24.0203 -106.4986 58.9461 -74.2376 0.0000 -0.0000 -32.4081 -3.4624 16.3624 -0.9765 7.1250 -0.0000 -0.0000 16.1286 -14.0255 12.2435
0.3500 15.8956 0.1540 -1.1854 -3.5153 -1.8980 0.0000 0.0000 0.0000 -17.5703 -9.0434 2.9170 1.2996 7.2225 20.3761 0.6381 3.6965 -16.8828 0.3866 -3.9930 -11.0570 0.0000 0.0000 0.0000 18.8649 12.3004 0.8999 -1.7408 -8.3039 23.6409 -0.5982 -5.3568 -17.5408 -0.4093 4.1072 -11.3784 -3.2942 0.4779 10.3132 -2.9759 -0.0354 -2.1411 -1.2937 0.0592 -8.0813 -9.5130 -7.3313 -16.9117 14.4096 -13.8388 35.7056 5.4158 -5.1974 18.0593 -0.0000 0.0000 0.0000 -88.8122 -34.8648 74.3671 100.4324 -59.5847 -69.0221 -0.0000 0.0000 -4.0397 35.6690 2.2134 1.5879 -7.1250 0.0000 -0.0000 7.3483 32.6432 -2.2398 -0.0000 0.0000 0.0000 13.2260 62.3370 24.1603 -106.5520 58.9391 -74.2833 0.0000 -0.0000 -32.3886 -3.5440 16.4392 -1.0041 7.1250 -0.0000 -0.0000 16.0712 -13.9477 12.2238
0.3509 15.8950 0.1533 -1.1870 -3.5320 -1.8980 0.0000 0.0000 0.0000 -17.5712 -9.0331 2.8887 1.3034 7.2326 20.4062 0.6418 3.7007 -16.9283 0.3989 -4.0551 -11.2317 0.0000 0.0000 0.0000 18.8560 12.2778 0.8668 -1.7415 -8.3055 23.6460 -0.5928 -5.3587 -17.4811 -0.4351 4.2327 -11.7323 -3.2996 0.4914 10.3516 -2.9688 -0.0207 -2.1599 -1.2866 0.0671 -8.1238 -9.5052 -7.3409 -16.9154 14.3911 -13.8483 35.7031 5.4028 -5.2020 18.0573 0.0000 -0.0000 0.0000 -88.8064 -34.8148 74.4420 100.5820 -59.5726 -69.1511 -0.0000 0.0000 -4.0477 35.6913 2.5402 1.8235 -7.1250 0.0000 -0.0000 7.3919 33.0425 -2.1814 0.0000 -0.0000 0.0000 13.3102 62.2789 24.2022 -106.4892 58.9473 -74.2296 0.0000 -0.0000 -32.3003 -3.4873 16.6077 -0.9979 7.1250 -0.0000 -0.0000 16.0984 -13.7884 12.3031
0.3529 15.8948 0.1536 -1.2604 -3.5603 -1.8850 0.0000 0.0000 0.0000 -17.5001 -9.0391 2.8833 1.3071 7.2423 20.4352 0.6488 3.6712 -16.9898 0.3872 -3.9957 -11.0646 0.0000 0.0000 0.0000 18.9148 12.2594 0.8280 -1.7437 -8.3104 23.6610 -0.5967 -5.3067 -17.4882 -0.4247 4.1824 -11.5904 -3.1981 0.5011 10.3446 -2.9523 0.0075 -2.1626 -1.3309 0.0764 -8.1223 -9.5386 -7.3499 -16.8835 14.4229 -13.8584 35.6631 5.4195 -5.2090 18.0358 0.0000 0.0000 0.0000 -88.8115 -34.8054 74.5067 100.5687 -59.5737 -69.1397 -0.0000 0.0000 -4.0725 35.7077 2.5914 1.8613 -7.1250 0.0000 -0.0000 7.4091 33.1053 -2.1753 0.0000 0.0000 0.0000 13.3788 62.2193 24.2417 -106.4610 58.9510 -74.2054 0.0000 -0.0000 -32.1980 -3.4948 16.6518 -1.0026 7.1250 -0.0000 -0.0000 16.0911 -13.7457 12.3122
0.3532 15.8947 0.1537 -1.2591 -3.5828 -1.8770 0.0000 0.0000 0.0000 -17.4995 -9.0305 2.8505 1.3106 7.2516 20.4629 0.6494 3.6501 -16.9836 0.3835 -3.9771 -11.0124 0.0000 0.0000 0.0000 18.9128 12.2988 0.8337 -1.7451 -8.3136 23.6708 -0.6069 -5.2463 -17.5596 -0.4018 4.0694 -11.2720 -3.1849 0.5157 10.3176 -2.9614 0.0301 -2.1502 -1.3513 0.0863 -8.0932 -9.5551 -7.3586 -16.8863 14.4430 -13.8675 35.6281 5.4273 -5.2127 18.0230 -0.0000 0.0000 0.0000 -88.8231 -34.8276 74.5748 100.5375 -59.5762 -69.1128 -0.0000 0.0000 -4.1180 35.6368 2.7041 1.9371 -7.1250 0.0000 -0.0000 7.3601 33.2410 -2.1363 -0.0000 0.0000 0.0000 13.4505 62.1579 24.2640 -106.5042 58.9453 -74.2425 0.0000 -0.0000 -32.1776 -3.4475 16.6586 -0.9894 7.1250 -0.0000 -0.0000 16.1214 -13.7414 12.3389
0.3540 15.8946 0.1549 -1.1412 -3.5773 -1.8669 0.0000 0.0000 0.0000 -17.6373 -9.0475 2.8169 1.3128 7.2574 20.4802 0.6469 3.6892 -16.9793 0.3981 -4.0512 -11.2209 0.0000 0.0000 0.0000 18.7607 12.2357 0.7899 -1.7478 -8.3198 23.6896 -0.6071 -5.2257 -17.5471 -0.4109 4.1149 -11.4000 -3.2970 0.5186 10.2896 -2.9931 0.0178 -2.1543 -1.3195 0.0847 -8.0821 -9.5148 -7.3646 -16.8816 14.3686 -13.8506 35.5815 5.3828 -5.2095 17.9763 -0.0000 0.0000 0.0000 -88.8361 -34.8023 74.5484 100.4859 -59.5804 -69.0682 -0.0000 0.0000 -4.1203 35.4946 2.6791 1.9092 -7.1250 0.0000 -0.0000 7.2425 33.2068 -2.1077 -0.0000 0.0000 0.0000 13.5467 62.1304 24.3214 -106.5161 58.9438 -74.2526 0.0000 -0.0000 -32.2113 -3.2931 16.8078 -0.9532 7.1250 -0.0000 -0.0000 16.2128 -13.6054 12.4638
0.3545 15.8943 0.1556 -1.1795 -3.5546 -1.8773 0.0000 0.0000 0.0000 -17.6036 -9.0559 2.8373 1.3120 7.2553 20.4739 0.6451 3.7288 -16.9822 0.4208 -4.1637 -11.5378 0.0000 0.0000 0.0000 18.8086 12.2381 0.7942 -1.7527 -8.3307 23.7231 -0.5991 -5.3156 -17.5212 -0.4450 4.2799 -11.8654 -3.2481 0.5009 10.2939 -2.9814 0.0026 -2.1286 -1.3315 0.0750 -8.0566 -9.4908 -7.3879 -16.9021 14.2981 -13.8459 35.4823 5.3356 -5.2125 17.9111 -0.0000 0.0000 0.0000 -88.8013 -34.8310 74.5132 100.4465 -59.5836 -69.0342 -0.0000 0.0000 -4.1369 35.4455 2.5302 1.8000 -7.1250 0.0000 -0.0000 7.1914 33.0242 -2.1246 -0.0000 0.0000 0.0000 13.6116 62.1387 24.3114 -106.4499 58.9524 -74.1959 0.0000 -0.0000 -32.1785 -3.1940 16.7932 -0.9237 7.1250 -0.0000 -0.0000 16.2776 -13.6241 12.5114
0.3545 15.8939 0.1550 -1.1808 -3.5728 -1.8591 0.0000 0.0000 0.0000 -17.6011 -9.0664 2.8392 1.3108 7.2522 20.4649 0.6430 3.7463 -16.9691 0.4294 -4.2056 -11.6558 0.0000 0.0000 0.0000 18.8077 12.2690 0.7597 -1.7567 -8.3398 23.7509 -0.5962 -5.3243 -17.4949 -0.4488 4.2979 -11.9164 -3.2635 0.5104 10.2748 -2.9663 0.0161 -2.1143 -1.3085 0.0826 -8.0301 -9.4846 -7.4176 -16.9199 14.2256 -13.8483 35.4073 5.2914 -5.2210 17.8623 -0.0000 -0.0000 0.0000 -88.8107 -34.8364 74.4785 100.3672 -59.5900 -68.9659 -0.0000 0.0000 -4.3074 35.3966 2.0362 1.4463 -7.1250 0.0000 -0.0000 7.1147 32.4220 -2.2058 -0.0000 -0.0000 0.0000 13.6408 62.1086 24.2968 -106.3730 58.9624 -74.1300 0.0000 -0.0000 -32.1493 -3.1271 16.8897 -0.9093 7.1250 -0.0000 -0.0000 16.3153 -13.5348 12.5752
0.3552 15.8941 0.1551 -1.1424 -3.5787 -1.8411 0.0000 0.0000 0.0000 -17.6529 -9.0784 2.8294 1.3107 7.2520 20.4640 0.6384 3.8012 -16.9514 0.4241 -4.1796 -11.5825 0.0000 0.0000 0.0000 18.7489 12.2568 0.7177 -1.7582 -8.3431 23.7610 -0.6070 -5.2178 -17.5402 -0.4243 4.1808 -11.5858 -3.3038 0.5255 10.2594 -2.9775 0.0303 -2.1293 -1.3002 0.0911 -8.0377 -9.5098 -7.4533 -16.8624 14.2234 -13.8872 35.3437 5.2818 -5.2441 17.8211 -0.0000 0.0000 0.0000 -88.7869 -34.7630 74.4802 100.1980 -59.6034 -68.8200 -0.0000 0.0000 -4.4106 35.3693 1.3416 0.9521 -7.1250 0.0000 -0.0000 7.0390 31.5764 -2.3263 -0.0000 0.0000 0.0000 13.8431 61.9985 24.4592 -106.4719 58.9496 -74.2148 0.0000 -0.0000 -32.0515 -3.2215 16.9160 -0.9383 7.1250 -0.0000 -0.0000 16.2530 -13.5050 12.5335
